<svg id="SvgjsSvg1001" width="288" height="288" xmlns="http://www.w3.org/2000/svg" version="1.1" xmlns:xlink="http://www.w3.org/1999/xlink" xmlns:svgjs="http://svgjs.com/svgjs"><defs id="SvgjsDefs1002"></defs><g id="SvgjsG1008"><svg xmlns="http://www.w3.org/2000/svg" version="1.0" viewBox="0 0 512 512" width="288" height="288"><g transform="matrix(.1 0 0 -.1 0 512)"><path d="M2410 5105 c-308 -62 -598 -318 -814 -717 l-47 -87 -172 0 c-336 -1-614 -74 -795 -208 -17 -13 -37 -21 -42 -18 -5 3 -35 10 -66 15 -180 29 -354
-98 -383 -281 -18 -111 18 -217 100 -298 48 -47 49 -50 49 -107 0 -211 102
-510 260 -766 l49 -78 -49 -78 c-158 -256 -260 -555 -260 -767 0 -59 -1 -62
-46 -104 -27 -26 -58 -69 -76 -108 -28 -59 -30 -70 -26 -151 3 -68 10 -98 30
-137 52 -101 142 -167 253 -185 51 -8 140 0 165 15 4 2 38 -15 75 -40 126 -83
317 -148 515 -176 47 -6 160 -12 253 -13 l167 -1 53 -95 c191 -345 427 -576
683 -669 449 -164 899 79 1228 664 l56 99 167 2 c93 0 206 6 253 13 198 28
388 93 514 176 60 39 70 43 94 33 15 -6 59 -11 97 -11 94 0 176 35 243 107 69
73 95 146 90 251 -5 96 -28 147 -98 220 l-48 50 -5 95 c-14 226 -99 470 -250
718 l-56 92 56 93 c151 247 235 490 250 717 l6 95 45 45 c68 67 103 151 103
242 0 41 -6 92 -15 117 -35 96 -122 180 -221 212 -48 15 -159 16 -198 0 -24
-9 -35 -6 -102 39 -184 120 -438 181 -756 181 l-167 0 -60 107 c-297 527 -695
779 -1102 697z m256 -166 c150 -27 300 -116 439 -261 96 -98 179 -210 239
-319 20 -36 36 -68 36 -71 0 -4 -19 -9 -42 -13 -204 -31 -479 -100 -675 -170
l-103 -37 -102 37 c-197 70 -471 139 -676 170 -35 6 -42 10 -37 23 15 42 94
169 153 248 226 300 502 442 768 393z m-1199 -822 c-78 -203 -159 -492 -196
-697 l-19 -105 -64 -55 c-116 -101 -349 -334 -441 -443 l-91 -108 -34 53 c-87
134 -167 345 -196 517 -23 135 -26 126 50 140 37 7 83 20 103 31 98 50 173
156 186 264 8 62 -14 160 -47 214 -21 34 -21 35 -2 50 62 47 258 115 399 136
124 19 359 21 352 3z m2555 -7 c63 -10 158 -35 212 -54 98 -35 190 -82 184
-94 -54 -103 -62 -129 -62 -207 0 -65 4 -90 26 -136 51 -112 137 -177 261
-200 77 -14 74 -5 51 -140 -29 -170 -108 -379 -196 -517 l-34 -53 -91 108
c-91 107 -321 339 -441 443 l-63 55 -33 166 c-40 197 -82 350 -142 516 -24 67
-44 124 -44 127 0 15 265 5 372 -14z m-2261 -5 c180 -27 549 -117 549 -134 0
-3 -67 -39 -148 -78 -197 -97 -366 -194 -546 -314 -82 -55 -151 -97 -154 -95
-6 7 32 161 75 305 31 104 114 331 120 331 2 0 48 -7 104 -15z m1744 -87 c63
-168 155 -483 155 -535 0 -7 -30 9 -67 36 -168 121 -435 278 -655 384 -71 33
-128 64 -128 68 0 21 506 138 640 148 11 1 28 -31 55 -101z m-2980 -124 c68
-44 91 -155 47 -226 -91 -147 -312 -85 -312 88 0 133 152 212 265 138z m4264
-2 c66 -49 92 -143 56 -211 -48 -94 -168 -123 -254 -61 -90 63 -86 215 7 276
55 36 139 35 191 -4z m-2131 -48 c295 -122 681 -344 953 -550 l96 -73 12 -93
c43 -343 43 -793 0 -1136 l-12 -93 -96 -73 c-126 -95 -277 -196 -428 -285
-131 -77 -496 -258 -578 -287 l-50 -17 -100 42 c-320 137 -673 341 -946 547
l-96 73 -12 93 c-44 362 -44 774 0 1136 l11 92 67 52 c94 74 316 223 451 303
194 114 583 303 628 305 7 0 52 -16 100 -36z m-1442 -831 c-15 -90 -24 -467
-15 -660 4 -115 11 -225 15 -245 3 -21 2 -38 -4 -38 -28 0 -447 459 -447 490
0 31 419 490 447 490 6 0 7 -17 4 -37z m2845 -110 c80 -82 180 -192 223 -245
l78 -98 -78 -97 c-86 -108 -369 -401 -378 -392 -3 3 -1 54 4 115 10 112 14
622 6 691 -12 95 -16 173 -8 173 5 0 74 -66 153 -147z m-3314 -600 c91 -108
322 -340 441 -443 l63 -55 34 -170 c37 -184 95 -392 150 -540 19 -51 35 -96
35 -99 0 -12 -246 -6 -348 10 -150 22 -341 86 -406 136 -19 15 -19 16 2 50 33
54 55 152 47 214 -8 70 -56 163 -105 208 -54 48 -105 73 -184 87 -76 14 -73 5
-50 140 29 170 93 345 181 492 26 42 48 77 48 77 1 0 42 -48 92 -107z m3823
-78 c52 -106 104 -268 124 -384 23 -135 26 -126 -51 -140 -124 -23 -210 -88
-261 -200 -21 -45 -26 -71 -27 -136 0 -69 4 -88 30 -140 17 -33 31 -63 33 -66
6 -14 -107 -69 -209 -103 -57 -19 -152 -42 -210 -50 -103 -16 -349 -22 -349
-10 0 3 16 48 35 99 54 146 112 353 150 539 l34 171 63 55 c120 104 350 335
441 443 l91 108 34 -53 c18 -29 51 -89 72 -133z m-2825 -767 c134 -84 358
-205 483 -263 45 -21 82 -41 82 -45 0 -9 -182 -60 -335 -95 -107 -24 -316 -58
-320 -53 -8 9 -97 256 -118 328 -28 93 -77 288 -77 307 0 7 37 -14 83 -46 45
-32 136 -92 202 -133z m1900 105 c-27 -124 -83 -308 -132 -438 -25 -66 -47
-121 -48 -123 -4 -4 -203 27 -303 49 -129 27 -352 90 -352 98 0 4 62 37 138
74 75 36 198 101 272 143 138 78 414 257 426 275 15 25 15 -6 -1 -78z m-3128
-55 c78 -47 102 -158 51 -235 -60 -90 -192 -101 -264 -21 -34 37 -44 63 -44
115 0 132 142 210 257 141z m4215 22 c77 -22 128 -87 128 -165 0 -95 -71 -167
-165 -167 -115 0 -194 103 -165 213 14 50 65 104 113 118 43 12 46 12 89 1z
m-2081 -511 c185 -68 502 -148 682 -174 26 -3 47 -9 47 -12 0 -14 -76 -144
-128 -218 -71 -100 -208 -244 -288 -301 -164 -117 -342 -164 -510 -133 -238
43 -494 257 -662 552 -62 108 -61 104 -5 112 174 24 533 117 693 179 36 13 70
25 76 25 5 1 48 -13 95 -30z" fill="#ffffff" class="color000 svgShape"></path><path d="M2083 3133c-24-22-80-147-247-550-119-286-216-530-216-541 0-30 40-71 75-78 53-10 77 21 146 186l63 150 229 0 228 0 23-52c12-29 42-99 66-156 34-83 48-106 72-118 56-29 118 8 118 70 0 38-421 1060-448 1088-10 10-31 20-48 24-26 5-37 1-61-23zm131-476c40-97 71-179 68-182-7-7-302-7-302 1 0 6 139 344 147 357 3 5 7 7 9 5 2-3 37-84 78-181zM2783 3150c-35-14-56-55-49-94 10-53 27-60 145-66l106-5 0-425 0-425-107-5c-120-6-135-13-144-71-5-29-1-41 19-65l25-29 285-3 284-3 32 26c40 34 43 84 6 120-22 23-31 25-125 25l-100 0 0 430 0 430 100 0c94 0 103 2 125 25 37 36 34 86-6 119l-31 26-271-1c-150 0-282-4-294-9z" fill="#ffffff" class="color000 svgShape"></path></g></svg></g></svg>