<svg xmlns="http://www.w3.org/2000/svg" version="1.0" preserveAspectRatio="xMidYMid meet" viewBox="194 35.28 512.01 441.22">

<g transform="translate(0.000000,520.000000) scale(0.100000,-0.100000)" fill="#ffffff" stroke="none">
<path d="M2223 4836 c-137 -43 -246 -166 -273 -305 -6 -35 -10 -693 -10 -1900 0 -2009 -3 -1907 55 -2004 37 -63 113 -133 180 -164 l60 -28 2265 0 2265 0 60 28 c67 31 143 101 180 164 58 97 55 -5 55 2004 0 1207 -4 1865 -10 1900 -23 120 -113 233 -227 287 l-58 27 -2250 2 c-1841 1 -2258 -1 -2292 -11z m4481 -348 c13 -19 16 -61 16 -255 l0 -233 -2220 0 -2220 0 0 233 c0 194 3 236 16 255 l15 22 2189 0 2189 0 15 -22z m16 -2251 c0 -1271 -2 -1425 -16 -1445 l-15 -22 -2189 0 -2189 0 -15 22 c-14 20 -16 174 -16 1445 l0 1423 2220 0 2220 0 0 -1423z"/>
<path d="M2615 4376 c-100 -45 -112 -171 -22 -226 113 -69 242 65 170 177 -32 48 -99 71 -148 49z"/>
<path d="M3020 4373 c-40 -21 -80 -75 -80 -110 0 -67 65 -133 130 -133 44 0 94 33 114 74 21 45 20 74 -4 113 -37 61 -103 84 -160 56z"/>
<path d="M3443 4379 c-39 -12 -80 -59 -89 -103 -13 -70 53 -146 126 -146 44 0 94 33 114 74 21 45 20 74 -4 113 -34 56 -89 79 -147 62z"/>
<path d="M4954 3216 c-17 -8 -43 -29 -57 -47 -14 -19 -248 -421 -521 -894 -448 -776 -496 -864 -496 -903 0 -24 7 -60 17 -79 44 -94 203 -123 270 -50 12 12 148 243 304 512 155 270 379 657 496 860 117 204 218 386 225 407 38 128 -110 249 -238 194z"/>
<path d="M3420 3034 c-40 -17 -722 -691 -747 -738 -20 -38 -20 -114 0 -152 9 -16 175 -187 369 -381 385 -383 387 -385 472 -362 56 15 83 36 111 84 27 45 32 96 15 142 -6 15 -138 155 -293 310 l-282 283 287 287 c248 250 287 293 293 326 16 85 -23 163 -99 198 -49 22 -79 23 -126 3z"/>
<path d="M5454 3031 c-76 -35 -115 -113 -99 -198 6 -33 45 -76 293 -326 l287 -287 -282 -283 c-154 -155 -286 -292 -292 -304 -33 -66 7 -177 79 -213 46 -24 119 -26 158 -6 34 18 716 702 732 735 17 33 15 112 -3 147 -9 16 -177 189 -374 385 -292 291 -364 357 -392 363 -49 9 -62 7 -107 -13z"/>
</g>
</svg>